<mxfile host="app.diagrams.net" modified="2023-02-01T07:26:19.222Z" agent="5.0 (X11; Linux x86_64) AppleWebKit/537.36 (KHTML, like Gecko) Chrome/109.0.0.0 Safari/537.36" etag="h5NY-cSN6OxHDAePl8p5" version="20.8.14" type="github">
  <diagram name="Page-1" id="Ow47FdyVhX5ut1MfdwrO">
    <mxGraphModel dx="481" dy="483" grid="1" gridSize="10" guides="1" tooltips="1" connect="1" arrows="1" fold="1" page="1" pageScale="1" pageWidth="827" pageHeight="1169" math="0" shadow="0">
      <root>
        <mxCell id="0" />
        <mxCell id="1" parent="0" />
        <mxCell id="1IElYCk9BIJs0B7QbLus-2" value="Student" style="whiteSpace=wrap;html=1;align=center;" vertex="1" parent="1">
          <mxGeometry x="460" y="280" width="100" height="40" as="geometry" />
        </mxCell>
        <mxCell id="1IElYCk9BIJs0B7QbLus-3" value="Program" style="whiteSpace=wrap;html=1;align=center;" vertex="1" parent="1">
          <mxGeometry x="460" y="510" width="100" height="40" as="geometry" />
        </mxCell>
        <mxCell id="1IElYCk9BIJs0B7QbLus-4" value="program_id" style="ellipse;whiteSpace=wrap;html=1;align=center;fontStyle=4;" vertex="1" parent="1">
          <mxGeometry x="270" y="510" width="100" height="40" as="geometry" />
        </mxCell>
        <mxCell id="1IElYCk9BIJs0B7QbLus-5" value="program_name" style="ellipse;whiteSpace=wrap;html=1;align=center;" vertex="1" parent="1">
          <mxGeometry x="354" y="600" width="100" height="40" as="geometry" />
        </mxCell>
        <mxCell id="1IElYCk9BIJs0B7QbLus-7" value="total_credit_points" style="ellipse;whiteSpace=wrap;html=1;align=center;" vertex="1" parent="1">
          <mxGeometry x="350" y="430" width="100" height="40" as="geometry" />
        </mxCell>
        <mxCell id="1IElYCk9BIJs0B7QbLus-8" value="Year_Commenced" style="ellipse;whiteSpace=wrap;html=1;align=center;" vertex="1" parent="1">
          <mxGeometry x="461" y="650" width="100" height="40" as="geometry" />
        </mxCell>
        <mxCell id="1IElYCk9BIJs0B7QbLus-14" value="" style="endArrow=none;html=1;rounded=0;exitX=0.5;exitY=1;exitDx=0;exitDy=0;entryX=0;entryY=0;entryDx=0;entryDy=0;" edge="1" parent="1" source="1IElYCk9BIJs0B7QbLus-7" target="1IElYCk9BIJs0B7QbLus-3">
          <mxGeometry relative="1" as="geometry">
            <mxPoint x="410" y="480" as="sourcePoint" />
            <mxPoint x="570" y="480" as="targetPoint" />
          </mxGeometry>
        </mxCell>
        <mxCell id="1IElYCk9BIJs0B7QbLus-15" value="" style="endArrow=none;html=1;rounded=0;" edge="1" parent="1" source="1IElYCk9BIJs0B7QbLus-4">
          <mxGeometry relative="1" as="geometry">
            <mxPoint x="370" y="530" as="sourcePoint" />
            <mxPoint x="460" y="530" as="targetPoint" />
          </mxGeometry>
        </mxCell>
        <mxCell id="1IElYCk9BIJs0B7QbLus-16" value="" style="endArrow=none;html=1;rounded=0;entryX=0;entryY=1;entryDx=0;entryDy=0;" edge="1" parent="1" target="1IElYCk9BIJs0B7QbLus-3">
          <mxGeometry relative="1" as="geometry">
            <mxPoint x="400" y="600" as="sourcePoint" />
            <mxPoint x="540" y="580" as="targetPoint" />
          </mxGeometry>
        </mxCell>
        <mxCell id="1IElYCk9BIJs0B7QbLus-17" value="" style="endArrow=none;html=1;rounded=0;exitX=0.5;exitY=1;exitDx=0;exitDy=0;entryX=0.5;entryY=0;entryDx=0;entryDy=0;" edge="1" parent="1" source="1IElYCk9BIJs0B7QbLus-3" target="1IElYCk9BIJs0B7QbLus-8">
          <mxGeometry relative="1" as="geometry">
            <mxPoint x="200" y="590" as="sourcePoint" />
            <mxPoint x="360" y="590" as="targetPoint" />
          </mxGeometry>
        </mxCell>
        <mxCell id="1IElYCk9BIJs0B7QbLus-20" value="course_name" style="ellipse;whiteSpace=wrap;html=1;align=center;" vertex="1" parent="1">
          <mxGeometry x="990" y="440" width="100" height="40" as="geometry" />
        </mxCell>
        <mxCell id="1IElYCk9BIJs0B7QbLus-21" value="course_id" style="ellipse;whiteSpace=wrap;html=1;align=center;fontStyle=4;" vertex="1" parent="1">
          <mxGeometry x="1000" y="610" width="100" height="40" as="geometry" />
        </mxCell>
        <mxCell id="1IElYCk9BIJs0B7QbLus-23" value="" style="endArrow=none;html=1;rounded=0;entryX=0;entryY=0.5;entryDx=0;entryDy=0;exitX=1;exitY=1;exitDx=0;exitDy=0;" edge="1" parent="1" source="1IElYCk9BIJs0B7QbLus-29" target="1IElYCk9BIJs0B7QbLus-21">
          <mxGeometry relative="1" as="geometry">
            <mxPoint x="740" y="400" as="sourcePoint" />
            <mxPoint x="900" y="400" as="targetPoint" />
          </mxGeometry>
        </mxCell>
        <mxCell id="1IElYCk9BIJs0B7QbLus-24" value="" style="endArrow=none;html=1;rounded=0;entryX=0;entryY=0.5;entryDx=0;entryDy=0;exitX=1;exitY=0;exitDx=0;exitDy=0;" edge="1" parent="1" source="1IElYCk9BIJs0B7QbLus-29" target="1IElYCk9BIJs0B7QbLus-20">
          <mxGeometry relative="1" as="geometry">
            <mxPoint x="740" y="360" as="sourcePoint" />
            <mxPoint x="900" y="360" as="targetPoint" />
          </mxGeometry>
        </mxCell>
        <mxCell id="1IElYCk9BIJs0B7QbLus-26" value="creadit_point" style="ellipse;whiteSpace=wrap;html=1;align=center;" vertex="1" parent="1">
          <mxGeometry x="590" y="690" width="100" height="40" as="geometry" />
        </mxCell>
        <mxCell id="1IElYCk9BIJs0B7QbLus-28" value="" style="endArrow=none;html=1;rounded=0;exitX=0.5;exitY=1;exitDx=0;exitDy=0;entryX=0.5;entryY=0;entryDx=0;entryDy=0;" edge="1" parent="1" source="1IElYCk9BIJs0B7QbLus-29" target="1IElYCk9BIJs0B7QbLus-26">
          <mxGeometry relative="1" as="geometry">
            <mxPoint x="690" y="400" as="sourcePoint" />
            <mxPoint x="830" y="450" as="targetPoint" />
          </mxGeometry>
        </mxCell>
        <mxCell id="1IElYCk9BIJs0B7QbLus-46" value="" style="edgeStyle=none;rounded=0;orthogonalLoop=1;jettySize=auto;html=1;" edge="1" parent="1" source="1IElYCk9BIJs0B7QbLus-29" target="1IElYCk9BIJs0B7QbLus-45">
          <mxGeometry relative="1" as="geometry" />
        </mxCell>
        <mxCell id="1IElYCk9BIJs0B7QbLus-29" value="Course" style="shape=ext;margin=3;double=1;whiteSpace=wrap;html=1;align=center;" vertex="1" parent="1">
          <mxGeometry x="780" y="510" width="100" height="40" as="geometry" />
        </mxCell>
        <mxCell id="1IElYCk9BIJs0B7QbLus-31" value="Year_Commenced" style="ellipse;whiteSpace=wrap;html=1;align=center;" vertex="1" parent="1">
          <mxGeometry x="770" y="690" width="100" height="40" as="geometry" />
        </mxCell>
        <mxCell id="1IElYCk9BIJs0B7QbLus-33" value="" style="endArrow=none;html=1;rounded=0;exitX=0.5;exitY=1;exitDx=0;exitDy=0;entryX=0.5;entryY=0;entryDx=0;entryDy=0;" edge="1" parent="1" source="1IElYCk9BIJs0B7QbLus-29" target="1IElYCk9BIJs0B7QbLus-31">
          <mxGeometry relative="1" as="geometry">
            <mxPoint x="694" y="449.5" as="sourcePoint" />
            <mxPoint x="854" y="449.5" as="targetPoint" />
          </mxGeometry>
        </mxCell>
        <mxCell id="1IElYCk9BIJs0B7QbLus-34" value="GivenName" style="ellipse;whiteSpace=wrap;html=1;align=center;" vertex="1" parent="1">
          <mxGeometry x="354" y="200" width="100" height="40" as="geometry" />
        </mxCell>
        <mxCell id="1IElYCk9BIJs0B7QbLus-35" value="SureName" style="ellipse;whiteSpace=wrap;html=1;align=center;" vertex="1" parent="1">
          <mxGeometry x="540" y="200" width="100" height="40" as="geometry" />
        </mxCell>
        <mxCell id="1IElYCk9BIJs0B7QbLus-36" value="student_id" style="ellipse;whiteSpace=wrap;html=1;align=center;fontStyle=4;" vertex="1" parent="1">
          <mxGeometry x="300" y="280" width="100" height="40" as="geometry" />
        </mxCell>
        <mxCell id="1IElYCk9BIJs0B7QbLus-39" value="" style="endArrow=none;html=1;rounded=0;exitX=1;exitY=0.5;exitDx=0;exitDy=0;entryX=0;entryY=0.5;entryDx=0;entryDy=0;" edge="1" parent="1" source="1IElYCk9BIJs0B7QbLus-36" target="1IElYCk9BIJs0B7QbLus-2">
          <mxGeometry relative="1" as="geometry">
            <mxPoint x="410" y="340" as="sourcePoint" />
            <mxPoint x="570" y="340" as="targetPoint" />
          </mxGeometry>
        </mxCell>
        <mxCell id="1IElYCk9BIJs0B7QbLus-40" value="" style="endArrow=none;html=1;rounded=0;entryX=0;entryY=0;entryDx=0;entryDy=0;exitX=0.5;exitY=1;exitDx=0;exitDy=0;" edge="1" parent="1" source="1IElYCk9BIJs0B7QbLus-34" target="1IElYCk9BIJs0B7QbLus-2">
          <mxGeometry relative="1" as="geometry">
            <mxPoint x="400" y="240" as="sourcePoint" />
            <mxPoint x="600" y="380" as="targetPoint" />
          </mxGeometry>
        </mxCell>
        <mxCell id="1IElYCk9BIJs0B7QbLus-41" value="" style="endArrow=none;html=1;rounded=0;exitX=1;exitY=0;exitDx=0;exitDy=0;entryX=0.5;entryY=1;entryDx=0;entryDy=0;" edge="1" parent="1" source="1IElYCk9BIJs0B7QbLus-2" target="1IElYCk9BIJs0B7QbLus-35">
          <mxGeometry relative="1" as="geometry">
            <mxPoint x="540" y="410" as="sourcePoint" />
            <mxPoint x="700" y="410" as="targetPoint" />
          </mxGeometry>
        </mxCell>
        <mxCell id="1IElYCk9BIJs0B7QbLus-42" value="Date-of-Birth" style="ellipse;whiteSpace=wrap;html=1;align=center;" vertex="1" parent="1">
          <mxGeometry x="610" y="280" width="100" height="40" as="geometry" />
        </mxCell>
        <mxCell id="1IElYCk9BIJs0B7QbLus-44" value="" style="endArrow=none;html=1;rounded=0;exitX=1;exitY=0.5;exitDx=0;exitDy=0;entryX=0;entryY=0.5;entryDx=0;entryDy=0;" edge="1" parent="1" source="1IElYCk9BIJs0B7QbLus-2" target="1IElYCk9BIJs0B7QbLus-42">
          <mxGeometry relative="1" as="geometry">
            <mxPoint x="570" y="380" as="sourcePoint" />
            <mxPoint x="730" y="380" as="targetPoint" />
          </mxGeometry>
        </mxCell>
        <mxCell id="1IElYCk9BIJs0B7QbLus-45" value="" style="rhombus;whiteSpace=wrap;html=1;" vertex="1" parent="1">
          <mxGeometry x="540" y="390" width="80" height="80" as="geometry" />
        </mxCell>
      </root>
    </mxGraphModel>
  </diagram>
</mxfile>
